<svg version="1.2" baseProfile="tiny-ps" xmlns="http://www.w3.org/2000/svg" viewBox="0 0 71 79" width="71" height="79">
	<title>blogman-noshadow-svg</title>
	<style>
		tspan { white-space:pre }
		.shp0 { fill: #e5726c }
		.shp1 { fill: #ffffff }
	</style>
	<path id="Layer" class="shp0" d="M1 39.48C1 34.38 1.01 29.29 1 24.19C0.99 21.18 2.28 18.96 4.87 17.48C13.78 12.36 22.71 7.25 31.62 2.12C34.22 0.63 36.8 0.63 39.39 2.12C48.27 7.23 57.14 12.32 66.03 17.41C68.71 18.93 70.01 21.2 70 24.32C69.98 34.46 69.99 44.61 70 54.75C70 57.76 68.74 60 66.15 61.48C57.18 66.62 48.22 71.78 39.24 76.93C36.75 78.36 34.24 78.36 31.75 76.93C22.76 71.77 13.76 66.62 4.78 61.45C2.25 60 0.99 57.78 1 54.82C1.01 49.71 1 44.6 1 39.48Z" />
	<path id="Layer" class="shp1" d="M35.18 23L40.52 23C46.09 23 49.75 26.94 49.75 31.75C49.75 33.34 49.35 34.71 48.67 35.84" />
	<path id="Layer" class="shp1" d="M48.67 35.84C47.93 37.09 46.86 38.06 45.62 38.74C48.87 39.85 51.14 42.44 51.14 46.66C51.14 46.88 51.13 47.1 51.12 47.31L38.59 35.38C40.18 35.23 40.93 34.4 40.93 32.75C40.93 30.91 40 30.09 38 30.09L33.03 30.09L25.58 23L35.18 23L48.67 35.84Z" />
	<path id="Layer" class="shp1" d="M51.12 47.31C50.95 49.92 49.76 52.03 47.95 53.44L41.71 47.5C42.11 47.05 42.32 46.43 42.32 45.64C42.32 43.84 41.25 42.91 39.21 42.91L36.88 42.91L21 27.79L25.58 23L33.02 30.09L31.34 30.09L31.34 35.41L38 35.41C38.21 35.41 38.4 35.4 38.58 35.38L51.12 47.31Z" />
	<path id="Layer" class="shp1" d="M33.02 48.37L39.21 48.37C40.36 48.37 41.19 48.08 41.71 47.5L47.95 53.44C46.33 54.7 44.22 55.41 41.91 55.41L40.42 55.41L33.02 48.37ZM21 36.93L21 27.79L36.88 42.91L31.34 42.91L31.34 46.77L21 36.93Z" />
	<path id="Layer" class="shp1" d="M40.41 55.41L30.81 55.41L21 46.07L21 36.93L31.34 46.76L31.34 48.37L33.02 48.37L40.41 55.41Z" />
	<path id="Layer" class="shp1" d="M30.81 55.41L21 55.41L21 46.07L30.81 55.41Z" />
</svg>
