<?xml version="1.0" encoding="UTF-8"?>
<svg width="163px" height="117px" viewBox="0 0 163 117" version="1.1" xmlns="http://www.w3.org/2000/svg">
    <title>logo_jivosite_regular</title>
    <desc>Created with Sketch.</desc>
    <g id="Page-1" stroke="none" stroke-width="1" fill="none" fill-rule="evenodd">
        <g id="logo_jivosite_regular">
            <g id="_Группа_" fill="#FFFFFF">
                <g id="_Группа_2">
                    <path d="M0.16,0 C-1.45,30.25 23.39,34.59 23.39,34.59 C22.1,1.43 0.16,0 0.16,0 Z" id="_Контур_"></path>
                </g>
            </g>
            <path d="M20.93,38.3996019 L2.59,38.3996019 C1.92447113,38.4299495 1.29983581,38.72963 0.86,39.23 C0.351249679,39.6761918 0.0506435935,40.3136215 0.03,40.99 L0.03,47.43 C0.0464595799,48.1216923 0.346589055,48.7761915 0.86,49.24 C1.30979603,49.7199926 1.93247561,50.0007383 2.59,50.02 L11.9,50.02 L11.9,96.41 C11.9144524,100.714342 8.71972894,104.35504 4.45,104.9 L2.59,104.9 C1.90457535,104.897599 1.24897343,105.180123 0.78,105.68 C0.276013508,106.146077 -0.00732894732,106.803577 -0.000138733908,107.49 L-0.000138733908,113.93 C0.00377838899,114.598703 0.252861871,115.242762 0.7,115.74 C1.18001703,116.253898 1.85701331,116.537799 2.56,116.52 L3.47,116.52 C13.9995985,116.488599 22.7014143,108.298398 23.37,97.79 C23.4454004,97.3878813 23.4789129,96.9790296 23.47,96.57 L23.47,40.99 C23.4724012,40.3045753 23.1898766,39.6489734 22.69,39.18 C22.2472462,38.6729311 21.6030467,38.3874336 20.93,38.3996019 Z" id="Path" fill="#FFFFFF"></path>
        </g>
    </g>
</svg>
